{
.appVersion = "1172";
DisplayStrings = (
o,
n,
i,
Woodbine,
b,
d,
c,
a,
f,
A,
B,
J,
e
);
copyright = "Copyright 2018 The Woodbine Project Authors";
customParameters = (
{
name = license;
value = "This Font Software is licensed under the SIL Open Font License, Version 1.1. This license is available with a FAQ at: http://scripts.sil.org/OFL";
},
{
name = licenseURL;
value = "http://scripts.sil.org/OFL";
},
{
name = trademark;
value = foobar;
},
{
name = fsType;
value = (
);
},
{
name = Axes;
value = (
{
Name = Weight;
Tag = wght;
}
);
},
{
name = "Use Line Breaks";
value = 1;
},
{
name = "Use Typo Metrics";
value = 1;
},
{
name = "Disable Last Change";
value = 1;
},
{
name = vendorID;
value = KTBF;
}
);
date = "2018-05-29 23:53:52 +0000";
designer = "Eli Heuer";
designerURL = "https://elih.blog";
disablesNiceNames = 1;
familyName = Woodbine;
fontMaster = (
{
ascender = 750;
capHeight = 700;
customParameters = (
{
name = "Axis Location";
value = (
{
Axis = Weight;
Location = 400;
}
);
},
{
name = typoAscender;
value = 1000;
},
{
name = typoDescender;
value = 200;
},
{
name = typoLineGap;
value = 0;
}
);
descender = -250;
id = "943837FD-2EA4-424D-A655-FFF98A08080F";
visible = 1;
weightValue = 400;
xHeight = 500;
},
{
ascender = 750;
capHeight = 700;
custom = Black;
customParameters = (
{
name = "Axis Location";
value = (
{
Axis = Weight;
Location = 900;
}
);
},
{
name = typoAscender;
value = 1000;
},
{
name = typoDescender;
value = 200;
},
{
name = typoLineGap;
value = 0;
}
);
descender = -200;
iconName = Bold;
id = "4B9CF309-7C6C-4E8F-98F9-807C6FC76924";
weightValue = 900;
xHeight = 500;
}
);
glyphs = (
{
color = 0;
glyphname = A;
layers = (
{
layerId = "943837FD-2EA4-424D-A655-FFF98A08080F";
paths = (
{
closed = 1;
nodes = (
"160 300 LINE",
"400 300 LINE",
"430 230 LINE",
"140 230 LINE"
);
},
{
closed = 1;
nodes = (
"250 650 LINE",
"310 620 LINE",
"100 0 LINE",
"0 0 LINE"
);
},
{
closed = 1;
nodes = (
"210 690 LINE",
"330 730 LINE",
"610 0 LINE",
"490 0 LINE"
);
}
);
width = 622;
},
{
layerId = "4B9CF309-7C6C-4E8F-98F9-807C6FC76924";
paths = (
{
closed = 1;
nodes = (
"160 160 LINE",
"400 160 LINE",
"430 110 LINE",
"140 110 LINE"
);
},
{
closed = 1;
nodes = (
"240 640 LINE",
"360 540 LINE",
"170 0 LINE",
"0 0 LINE"
);
},
{
closed = 1;
nodes = (
"120 700 LINE",
"330 700 LINE",
"610 0 LINE",
"360 0 LINE"
);
}
);
width = 622;
}
);
unicode = 0041;
},
{
color = 0;
glyphname = B;
layers = (
{
layerId = "943837FD-2EA4-424D-A655-FFF98A08080F";
paths = (
{
closed = 1;
nodes = (
"316 701 LINE SMOOTH",
"436 701 OFFCURVE",
"477 625 OFFCURVE",
"477 557 CURVE SMOOTH",
"477 440 OFFCURVE",
"390 382 OFFCURVE",
"299 346 CURVE",
"277 372 LINE",
"350 417 OFFCURVE",
"376 474 OFFCURVE",
"373 528 CURVE SMOOTH",
"370 590 OFFCURVE",
"308 652 OFFCURVE",
"225 652 CURVE SMOOTH",
"198 652 OFFCURVE",
"174 645 OFFCURVE",
"157 632 CURVE",
"161 3 LINE",
"50 5 LINE",
"48 700 LINE"
);
},
{
closed = 1;
nodes = (
"130 340 LINE",
"214 392 LINE",
"341 392 OFFCURVE",
"491 317 OFFCURVE",
"489 206 CURVE SMOOTH",
"486 70 OFFCURVE",
"389 -17 OFFCURVE",
"230 -17 CURVE SMOOTH",
"158 -17 OFFCURVE",
"91 -8 OFFCURVE",
"50 5 CURVE",
"141 70 LINE",
"176 45 OFFCURVE",
"212 31 OFFCURVE",
"270 33 CURVE SMOOTH",
"343 35 OFFCURVE",
"380 126 OFFCURVE",
"379 177 CURVE SMOOTH",
"376 292 OFFCURVE",
"232 329 OFFCURVE",
"131 317 CURVE"
);
}
);
width = 537;
},
{
layerId = "4B9CF309-7C6C-4E8F-98F9-807C6FC76924";
paths = (
{
closed = 1;
nodes = (
"316 701 LINE SMOOTH",
"436 701 OFFCURVE",
"477 625 OFFCURVE",
"477 557 CURVE SMOOTH",
"477 440 OFFCURVE",
"390 382 OFFCURVE",
"299 346 CURVE",
"277 372 LINE",
"350 417 OFFCURVE",
"376 474 OFFCURVE",
"373 528 CURVE SMOOTH",
"370 590 OFFCURVE",
"308 652 OFFCURVE",
"225 652 CURVE SMOOTH",
"198 652 OFFCURVE",
"174 645 OFFCURVE",
"157 632 CURVE",
"161 3 LINE",
"50 5 LINE",
"48 700 LINE"
);
},
{
closed = 1;
nodes = (
"130 340 LINE",
"214 392 LINE",
"341 392 OFFCURVE",
"491 317 OFFCURVE",
"489 206 CURVE SMOOTH",
"486 70 OFFCURVE",
"389 -17 OFFCURVE",
"230 -17 CURVE SMOOTH",
"158 -17 OFFCURVE",
"91 -8 OFFCURVE",
"50 5 CURVE",
"141 70 LINE",
"176 45 OFFCURVE",
"212 31 OFFCURVE",
"270 33 CURVE SMOOTH",
"343 35 OFFCURVE",
"380 126 OFFCURVE",
"379 177 CURVE SMOOTH",
"376 292 OFFCURVE",
"232 329 OFFCURVE",
"131 317 CURVE"
);
}
);
width = 600;
}
);
unicode = 0042;
},
{
color = 0;
glyphname = C;
layers = (
{
layerId = "943837FD-2EA4-424D-A655-FFF98A08080F";
paths = (
{
closed = 1;
nodes = (
"513 585 LINE",
"472 614 OFFCURVE",
"414 635 OFFCURVE",
"351 635 CURVE SMOOTH",
"182 635 OFFCURVE",
"133 500 OFFCURVE",
"133 380 CURVE SMOOTH",
"133 151 OFFCURVE",
"324 77 OFFCURVE",
"419 71 CURVE SMOOTH",
"486 67 OFFCURVE",
"538 95 OFFCURVE",
"583 130 CURVE",
"605 103 LINE",
"406 -23 LINE",
"165 -23 OFFCURVE",
"47 80 OFFCURVE",
"48 319 CURVE SMOOTH",
"49 601 OFFCURVE",
"309 719 OFFCURVE",
"425 719 CURVE SMOOTH",
"490 719 OFFCURVE",
"555 693 OFFCURVE",
"585 667 CURVE"
);
}
);
width = 653;
},
{
layerId = "4B9CF309-7C6C-4E8F-98F9-807C6FC76924";
paths = (
{
closed = 1;
nodes = (
"513 585 LINE",
"472 614 OFFCURVE",
"414 635 OFFCURVE",
"351 635 CURVE SMOOTH",
"182 635 OFFCURVE",
"133 500 OFFCURVE",
"133 380 CURVE SMOOTH",
"133 151 OFFCURVE",
"324 77 OFFCURVE",
"419 71 CURVE SMOOTH",
"486 67 OFFCURVE",
"538 95 OFFCURVE",
"583 130 CURVE",
"605 103 LINE",
"406 -23 LINE",
"165 -23 OFFCURVE",
"47 80 OFFCURVE",
"48 319 CURVE SMOOTH",
"49 601 OFFCURVE",
"309 719 OFFCURVE",
"425 719 CURVE SMOOTH",
"490 719 OFFCURVE",
"555 693 OFFCURVE",
"585 667 CURVE"
);
}
);
width = 600;
}
);
unicode = 0043;
},
{
color = 0;
glyphname = D;
layers = (
{
layerId = "943837FD-2EA4-424D-A655-FFF98A08080F";
paths = (
{
closed = 1;
nodes = (
"160 32 LINE",
"160 644 LINE",
"385 651 OFFCURVE",
"527 553 OFFCURVE",
"527 294 CURVE SMOOTH",
"527 225 OFFCURVE",
"522 66 OFFCURVE",
"283 60 CURVE SMOOTH",
"223 58 OFFCURVE",
"185 66 OFFCURVE",
"143 97 CURVE",
"75 30 LINE",
"98 9 OFFCURVE",
"176 -12 OFFCURVE",
"213 -12 CURVE SMOOTH",
"525 -8 OFFCURVE",
"618 228 OFFCURVE",
"618 397 CURVE SMOOTH",
"618 610 OFFCURVE",
"483 698 OFFCURVE",
"273 700 CURVE SMOOTH",
"48 702 LINE",
"50 2 LINE"
);
}
);
width = 666;
},
{
layerId = "4B9CF309-7C6C-4E8F-98F9-807C6FC76924";
paths = (
{
closed = 1;
nodes = (
"160 32 LINE",
"160 644 LINE",
"385 651 OFFCURVE",
"527 553 OFFCURVE",
"527 294 CURVE SMOOTH",
"527 225 OFFCURVE",
"522 66 OFFCURVE",
"283 60 CURVE SMOOTH",
"223 58 OFFCURVE",
"185 66 OFFCURVE",
"143 97 CURVE",
"75 30 LINE",
"98 9 OFFCURVE",
"176 -12 OFFCURVE",
"213 -12 CURVE SMOOTH",
"525 -8 OFFCURVE",
"618 228 OFFCURVE",
"618 397 CURVE SMOOTH",
"618 610 OFFCURVE",
"483 698 OFFCURVE",
"273 700 CURVE SMOOTH",
"48 702 LINE",
"50 2 LINE"
);
}
);
width = 600;
}
);
unicode = 0044;
},
{
color = 0;
glyphname = E;
layers = (
{
layerId = "943837FD-2EA4-424D-A655-FFF98A08080F";
paths = (
{
closed = 1;
nodes = (
"406 702 LINE",
"370 634 LINE",
"161 634 LINE",
"157 389 LINE",
"401 390 LINE",
"370 322 LINE",
"158 322 LINE",
"161 70 LINE",
"414 71 LINE",
"377 1 LINE",
"48 1 LINE",
"48 700 LINE"
);
}
);
width = 462;
},
{
layerId = "4B9CF309-7C6C-4E8F-98F9-807C6FC76924";
paths = (
{
closed = 1;
nodes = (
"14 700 LINE",
"392 702 LINE",
"356 514 LINE",
"227 514 LINE",
"223 479 LINE",
"387 480 LINE",
"356 272 LINE",
"224 272 LINE",
"224 235 LINE",
"397 236 LINE",
"363 1 LINE",
"14 1 LINE"
);
}
);
width = 406;
}
);
unicode = 0045;
},
{
color = 0;
glyphname = F;
layers = (
{
layerId = "943837FD-2EA4-424D-A655-FFF98A08080F";
paths = (
{
closed = 1;
nodes = (
"406 702 LINE",
"370 634 LINE",
"161 634 LINE",
"157 389 LINE",
"401 390 LINE",
"370 322 LINE",
"158 322 LINE",
"161 -1 LINE",
"48 1 LINE",
"48 700 LINE"
);
}
);
width = 454;
},
{
layerId = "4B9CF309-7C6C-4E8F-98F9-807C6FC76924";
paths = (
{
closed = 1;
nodes = (
"406 702 LINE",
"370 634 LINE",
"161 634 LINE",
"157 389 LINE",
"401 390 LINE",
"370 322 LINE",
"158 322 LINE",
"161 -1 LINE",
"48 1 LINE",
"48 700 LINE"
);
}
);
width = 600;
}
);
unicode = 0046;
},
{
color = 0;
glyphname = G;
layers = (
{
layerId = "943837FD-2EA4-424D-A655-FFF98A08080F";
paths = (
{
closed = 1;
nodes = (
"207 -23 OFFCURVE",
"32 152 OFFCURVE",
"32 319 QCURVE SMOOTH",
"32 499 OFFCURVE",
"252 719 OFFCURVE",
"409 719 QCURVE SMOOTH",
"485 719 OFFCURVE",
"559 667 QCURVE",
"487 585 LINE",
"410 635 OFFCURVE",
"335 635 QCURVE SMOOTH",
"199 635 OFFCURVE",
"117 506 OFFCURVE",
"117 380 QCURVE SMOOTH",
"117 250 OFFCURVE",
"306 71 OFFCURVE",
"403 71 QCURVE SMOOTH",
"436 71 OFFCURVE",
"473 99 QCURVE",
"475 316 LINE",
"324 318 LINE",
"375 383 LINE",
"589 386 LINE",
"589 103 LINE",
"390 -23 LINE"
);
}
);
width = 589;
},
{
layerId = "4B9CF309-7C6C-4E8F-98F9-807C6FC76924";
paths = (
{
closed = 1;
nodes = (
"83 0 OFFCURVE",
"31 100 OFFCURVE",
"32 319 QCURVE SMOOTH",
"33 630 OFFCURVE",
"172 700 OFFCURVE",
"409 700 QCURVE SMOOTH",
"495 700 OFFCURVE",
"569 700 QCURVE",
"487 490 LINE",
"410 490 OFFCURVE",
"335 490 QCURVE SMOOTH",
"289 490 OFFCURVE",
"287 490 OFFCURVE",
"287 380 QCURVE SMOOTH",
"287 281 OFFCURVE",
"288 281 OFFCURVE",
"323 281 QCURVE SMOOTH",
"328 281 OFFCURVE",
"365 281 QCURVE",
"365 314 LINE",
"320 316 LINE",
"320 453 LINE",
"589 456 LINE",
"589 120 LINE",
"390 0 LINE"
);
}
);
width = 605;
}
);
unicode = 0047;
},
{
color = 0;
glyphname = H;
layers = (
{
layerId = "943837FD-2EA4-424D-A655-FFF98A08080F";
paths = (
{
closed = 1;
nodes = (
"447 0 LINE",
"447 700 LINE",
"575 700 LINE",
"575 0 LINE"
);
},
{
closed = 1;
nodes = (
"48 0 LINE",
"48 700 LINE",
"176 700 LINE",
"176 0 LINE"
);
},
{
closed = 1;
nodes = (
"532 404 LINE",
"482 330 LINE",
"104 330 LINE",
"144 404 LINE"
);
}
);
width = 623;
},
{
layerId = "4B9CF309-7C6C-4E8F-98F9-807C6FC76924";
paths = (
{
closed = 1;
nodes = (
"356 0 LINE",
"356 700 LINE",
"575 700 LINE",
"575 0 LINE"
);
},
{
closed = 1;
nodes = (
"48 0 LINE",
"48 700 LINE",
"236 700 LINE",
"236 0 LINE"
);
},
{
closed = 1;
nodes = (
"492 384 LINE",
"412 320 LINE",
"144 320 LINE",
"214 384 LINE"
);
}
);
width = 600;
}
);
unicode = 0048;
},
{
color = 0;
glyphname = I;
layers = (
{
layerId = "943837FD-2EA4-424D-A655-FFF98A08080F";
paths = (
{
closed = 1;
nodes = (
"48 0 LINE",
"48 700 LINE",
"176 700 LINE",
"176 0 LINE"
);
}
);
width = 224;
},
{
layerId = "4B9CF309-7C6C-4E8F-98F9-807C6FC76924";
paths = (
{
closed = 1;
nodes = (
"18 0 LINE",
"18 700 LINE",
"207 700 LINE",
"207 0 LINE"
);
}
);
width = 224;
}
);
unicode = 0049;
},
{
color = 0;
glyphname = J;
layers = (
{
layerId = "943837FD-2EA4-424D-A655-FFF98A08080F";
paths = (
{
closed = 1;
nodes = (
"107 -25 OFFCURVE",
"140 -25 QCURVE SMOOTH",
"164 -25 OFFCURVE",
"370 137 OFFCURVE",
"370 171 QCURVE SMOOTH",
"370 698 LINE",
"244 697 LINE",
"248 97 LINE SMOOTH",
"248 71 OFFCURVE",
"225 57 OFFCURVE",
"199 57 QCURVE SMOOTH",
"174 57 OFFCURVE",
"121 107 QCURVE",
"48 40 LINE"
);
}
);
width = 418;
},
{
layerId = "4B9CF309-7C6C-4E8F-98F9-807C6FC76924";
paths = (
{
closed = 1;
nodes = (
"117 -25 OFFCURVE",
"140 -25 QCURVE SMOOTH",
"174 -25 OFFCURVE",
"370 127 OFFCURVE",
"370 171 QCURVE SMOOTH",
"370 698 LINE",
"244 697 LINE",
"248 109 LINE",
"247 88 OFFCURVE",
"224 66 OFFCURVE",
"205 66 QCURVE SMOOTH",
"179 66 OFFCURVE",
"126 111 QCURVE",
"38 40 LINE"
);
}
);
width = 600;
}
);
unicode = 004A;
},
{
color = 0;
glyphname = K;
layers = (
{
layerId = "943837FD-2EA4-424D-A655-FFF98A08080F";
paths = (
{
closed = 1;
nodes = (
"48 0 LINE",
"48 700 LINE",
"176 700 LINE",
"176 0 LINE"
);
},
{
closed = 1;
nodes = (
"152 352 LINE",
"427 700 LINE",
"517 700 LINE",
"262 388 LINE",
"525 39 LINE",
"425 -24 LINE"
);
}
);
width = 573;
},
{
layerId = "4B9CF309-7C6C-4E8F-98F9-807C6FC76924";
paths = (
{
closed = 1;
nodes = (
"48 0 LINE",
"48 700 LINE",
"176 700 LINE",
"176 0 LINE"
);
},
{
closed = 1;
nodes = (
"152 352 LINE",
"427 700 LINE",
"517 700 LINE",
"262 388 LINE",
"525 39 LINE",
"425 -24 LINE"
);
}
);
width = 600;
}
);
unicode = 004B;
},
{
color = 0;
glyphname = L;
layers = (
{
layerId = "943837FD-2EA4-424D-A655-FFF98A08080F";
paths = (
{
closed = 1;
nodes = (
"160 701 LINE",
"160 65 LINE",
"398 66 LINE",
"361 1 LINE",
"32 1 LINE",
"32 700 LINE"
);
}
);
width = 414;
},
{
layerId = "4B9CF309-7C6C-4E8F-98F9-807C6FC76924";
paths = (
{
closed = 1;
nodes = (
"244 701 LINE",
"240 104 LINE",
"386 105 LINE",
"344 1 LINE",
"16 1 LINE",
"16 700 LINE"
);
}
);
width = 386;
}
);
unicode = 004C;
},
{
color = 0;
glyphname = M;
layers = (
{
layerId = "943837FD-2EA4-424D-A655-FFF98A08080F";
paths = (
{
closed = 1;
nodes = (
"248 700 LINE",
"419 153 LINE",
"630 700 LINE",
"758 700 LINE",
"788 0 LINE",
"660 0 LINE",
"634 549 LINE",
"419 0 LINE",
"350 0 LINE",
"163 572 LINE",
"130 0 LINE",
"48 0 LINE",
"120 700 LINE"
);
}
);
width = 836;
},
{
layerId = "4B9CF309-7C6C-4E8F-98F9-807C6FC76924";
paths = (
{
closed = 1;
nodes = (
"248 700 LINE",
"419 153 LINE",
"630 700 LINE",
"758 700 LINE",
"788 0 LINE",
"660 0 LINE",
"634 549 LINE",
"419 0 LINE",
"350 0 LINE",
"163 572 LINE",
"130 0 LINE",
"48 0 LINE",
"120 700 LINE"
);
}
);
width = 600;
}
);
unicode = 004D;
},
{
color = 0;
glyphname = N;
layers = (
{
layerId = "943837FD-2EA4-424D-A655-FFF98A08080F";
paths = (
{
closed = 1;
nodes = (
"48 677 LINE",
"154 726 LINE",
"554 145 LINE",
"516 145 LINE",
"516 700 LINE",
"590 700 LINE",
"588 0 LINE",
"518 0 LINE"
);
},
{
closed = 1;
nodes = (
"100 642 LINE",
"160 643 LINE",
"160 0 LINE",
"96 0 LINE"
);
}
);
width = 638;
},
{
layerId = "4B9CF309-7C6C-4E8F-98F9-807C6FC76924";
paths = (
{
closed = 1;
nodes = (
"16 630 LINE",
"190 770 LINE",
"460 425 LINE",
"422 425 LINE",
"422 700 LINE",
"606 700 LINE",
"604 0 LINE",
"474 0 LINE"
);
},
{
closed = 1;
nodes = (
"66 612 LINE",
"276 613 LINE",
"276 0 LINE",
"62 0 LINE"
);
}
);
width = 622;
}
);
unicode = 004E;
},
{
color = 0;
glyphname = O;
layers = (
{
layerId = "943837FD-2EA4-424D-A655-FFF98A08080F";
paths = (
{
closed = 1;
nodes = (
"221 -16 OFFCURVE",
"50 153 OFFCURVE",
"50 298 QCURVE SMOOTH",
"50 470 OFFCURVE",
"280 721 OFFCURVE",
"401 721 QCURVE SMOOTH",
"541 721 OFFCURVE",
"697 494 OFFCURVE",
"695 369 QCURVE SMOOTH",
"692 208 OFFCURVE",
"467 -16 OFFCURVE",
"334 -16 QCURVE SMOOTH"
);
},
{
closed = 1;
nodes = (
"496 71 OFFCURVE",
"595 167 OFFCURVE",
"595 312 QCURVE SMOOTH",
"595 456 OFFCURVE",
"436 629 OFFCURVE",
"329 629 QCURVE SMOOTH",
"238 629 OFFCURVE",
"130 493 OFFCURVE",
"131 375 QCURVE SMOOTH",
"132 266 OFFCURVE",
"283 71 OFFCURVE",
"400 71 QCURVE SMOOTH"
);
}
);
width = 742;
},
{
layerId = "4B9CF309-7C6C-4E8F-98F9-807C6FC76924";
paths = (
{
closed = 1;
nodes = (
"89 -16 OFFCURVE",
"26 63 OFFCURVE",
"26 298 QCURVE SMOOTH",
"26 620 OFFCURVE",
"98 721 OFFCURVE",
"379 721 QCURVE SMOOTH",
"659 721 OFFCURVE",
"724 644 OFFCURVE",
"723 369 QCURVE SMOOTH",
"722 78 OFFCURVE",
"645 -16 OFFCURVE",
"312 -16 QCURVE SMOOTH"
);
},
{
closed = 1;
nodes = (
"443 71 OFFCURVE",
"443 71 OFFCURVE",
"443 312 QCURVE SMOOTH",
"443 516 OFFCURVE",
"394 629 OFFCURVE",
"347 629 QCURVE SMOOTH",
"316 629 OFFCURVE",
"317 629 OFFCURVE",
"317 375 QCURVE SMOOTH",
"317 186 OFFCURVE",
"361 71 OFFCURVE",
"418 71 QCURVE SMOOTH"
);
}
);
width = 742;
}
);
unicode = 004F;
},
{
color = 0;
glyphname = P;
layers = (
{
layerId = "943837FD-2EA4-424D-A655-FFF98A08080F";
paths = (
{
closed = 1;
nodes = (
"48 700 LINE",
"226 700 LINE SMOOTH",
"307 700 OFFCURVE",
"484 708 OFFCURVE",
"487 527 CURVE SMOOTH",
"490 346 OFFCURVE",
"324 269 OFFCURVE",
"244 270 CURVE SMOOTH",
"164 271 OFFCURVE",
"124 294 OFFCURVE",
"106 302 CURVE",
"106 348 LINE",
"156 334 OFFCURVE",
"184 335 OFFCURVE",
"251 334 CURVE SMOOTH",
"328 333 OFFCURVE",
"373 369 OFFCURVE",
"375 462 CURVE SMOOTH",
"378 587 OFFCURVE",
"302 644 OFFCURVE",
"176 645 CURVE",
"176 0 LINE",
"48 0 LINE"
);
}
);
width = 535;
},
{
layerId = "4B9CF309-7C6C-4E8F-98F9-807C6FC76924";
paths = (
{
closed = 1;
nodes = (
"48 700 LINE",
"226 700 LINE SMOOTH",
"307 700 OFFCURVE",
"484 708 OFFCURVE",
"487 527 CURVE SMOOTH",
"490 346 OFFCURVE",
"324 269 OFFCURVE",
"244 270 CURVE SMOOTH",
"164 271 OFFCURVE",
"124 294 OFFCURVE",
"106 302 CURVE",
"106 348 LINE",
"156 334 OFFCURVE",
"184 335 OFFCURVE",
"251 334 CURVE SMOOTH",
"328 333 OFFCURVE",
"373 369 OFFCURVE",
"375 462 CURVE SMOOTH",
"378 587 OFFCURVE",
"302 644 OFFCURVE",
"176 645 CURVE",
"176 0 LINE",
"48 0 LINE"
);
}
);
width = 600;
}
);
unicode = 0050;
},
{
color = 0;
glyphname = Q;
layers = (
{
layerId = "943837FD-2EA4-424D-A655-FFF98A08080F";
paths = (
{
closed = 1;
nodes = (
"196 -16 OFFCURVE",
"49 77 OFFCURVE",
"48 298 CURVE SMOOTH",
"47 559 OFFCURVE",
"266 721 OFFCURVE",
"401 721 CURVE SMOOTH",
"615 721 OFFCURVE",
"700 506 OFFCURVE",
"695 369 CURVE SMOOTH",
"688 192 OFFCURVE",
"551 -16 OFFCURVE",
"334 -16 CURVE SMOOTH"
);
},
{
closed = 1;
nodes = (
"523 71 OFFCURVE",
"594 116 OFFCURVE",
"595 312 CURVE SMOOTH",
"596 508 OFFCURVE",
"461 629 OFFCURVE",
"329 629 CURVE SMOOTH",
"179 629 OFFCURVE",
"128 478 OFFCURVE",
"129 375 CURVE SMOOTH",
"130 242 OFFCURVE",
"237 71 OFFCURVE",
"400 71 CURVE SMOOTH"
);
},
{
closed = 1;
nodes = (
"243 176 OFFCURVE",
"318 225 OFFCURVE",
"399 225 CURVE SMOOTH",
"459 225 OFFCURVE",
"594 -47 OFFCURVE",
"612 -47 CURVE SMOOTH",
"630 -47 OFFCURVE",
"635 -33 OFFCURVE",
"647 -26 CURVE",
"668 -46 LINE",
"654 -72 OFFCURVE",
"580 -138 OFFCURVE",
"554 -138 CURVE SMOOTH",
"508 -138 OFFCURVE",
"370 152 OFFCURVE",
"318 154 CURVE SMOOTH",
"288 155 OFFCURVE",
"262 132 OFFCURVE",
"230 104 CURVE",
"205 132 LINE"
);
}
);
width = 743;
},
{
layerId = "4B9CF309-7C6C-4E8F-98F9-807C6FC76924";
paths = (
{
closed = 1;
nodes = (
"196 -16 OFFCURVE",
"49 77 OFFCURVE",
"48 298 CURVE SMOOTH",
"47 559 OFFCURVE",
"266 721 OFFCURVE",
"401 721 CURVE SMOOTH",
"615 721 OFFCURVE",
"700 506 OFFCURVE",
"695 369 CURVE SMOOTH",
"688 192 OFFCURVE",
"551 -16 OFFCURVE",
"334 -16 CURVE SMOOTH"
);
},
{
closed = 1;
nodes = (
"523 71 OFFCURVE",
"594 116 OFFCURVE",
"595 312 CURVE SMOOTH",
"596 508 OFFCURVE",
"461 629 OFFCURVE",
"329 629 CURVE SMOOTH",
"179 629 OFFCURVE",
"128 478 OFFCURVE",
"129 375 CURVE SMOOTH",
"130 242 OFFCURVE",
"237 71 OFFCURVE",
"400 71 CURVE SMOOTH"
);
},
{
closed = 1;
nodes = (
"243 176 OFFCURVE",
"318 225 OFFCURVE",
"399 225 CURVE SMOOTH",
"459 225 OFFCURVE",
"594 -47 OFFCURVE",
"612 -47 CURVE SMOOTH",
"630 -47 OFFCURVE",
"635 -33 OFFCURVE",
"647 -26 CURVE",
"668 -46 LINE",
"654 -72 OFFCURVE",
"580 -138 OFFCURVE",
"554 -138 CURVE SMOOTH",
"508 -138 OFFCURVE",
"370 152 OFFCURVE",
"318 154 CURVE SMOOTH",
"288 155 OFFCURVE",
"262 132 OFFCURVE",
"230 104 CURVE",
"205 132 LINE"
);
}
);
width = 600;
}
);
unicode = 0051;
},
{
color = 0;
glyphname = R;
layers = (
{
layerId = "943837FD-2EA4-424D-A655-FFF98A08080F";
paths = (
{
closed = 1;
nodes = (
"48 700 LINE",
"236 700 LINE SMOOTH",
"317 700 OFFCURVE",
"475 691 OFFCURVE",
"477 536 CURVE SMOOTH",
"479 414 OFFCURVE",
"357 337 OFFCURVE",
"266 337 CURVE",
"267 355 LINE",
"516 38 LINE",
"417 -25 LINE",
"160 330 LINE",
"244 383 LINE",
"257 372 OFFCURVE",
"271 368 OFFCURVE",
"296 368 CURVE SMOOTH",
"333 368 OFFCURVE",
"367 441 OFFCURVE",
"366 500 CURVE SMOOTH",
"364 612 OFFCURVE",
"302 644 OFFCURVE",
"176 645 CURVE",
"176 0 LINE",
"48 0 LINE"
);
}
);
width = 564;
},
{
layerId = "4B9CF309-7C6C-4E8F-98F9-807C6FC76924";
paths = (
{
closed = 1;
nodes = (
"48 700 LINE",
"236 700 LINE SMOOTH",
"317 700 OFFCURVE",
"475 691 OFFCURVE",
"477 536 CURVE SMOOTH",
"479 414 OFFCURVE",
"357 337 OFFCURVE",
"266 337 CURVE",
"267 355 LINE",
"516 38 LINE",
"417 -25 LINE",
"160 330 LINE",
"244 383 LINE",
"257 372 OFFCURVE",
"271 368 OFFCURVE",
"296 368 CURVE SMOOTH",
"333 368 OFFCURVE",
"367 441 OFFCURVE",
"366 500 CURVE SMOOTH",
"364 612 OFFCURVE",
"302 644 OFFCURVE",
"176 645 CURVE",
"176 0 LINE",
"48 0 LINE"
);
}
);
width = 600;
}
);
unicode = 0052;
},
{
color = 0;
glyphname = S;
layers = (
{
layerId = "943837FD-2EA4-424D-A655-FFF98A08080F";
paths = (
{
closed = 1;
nodes = (
"124 -26 OFFCURVE",
"78 30 OFFCURVE",
"48 76 CURVE",
"147 146 LINE",
"180 94 OFFCURVE",
"224 59 OFFCURVE",
"281 55 CURVE SMOOTH",
"319 52 OFFCURVE",
"336 94 OFFCURVE",
"336 166 CURVE SMOOTH",
"336 240 OFFCURVE",
"262 269 OFFCURVE",
"212 297 CURVE SMOOTH",
"150 332 OFFCURVE",
"66 360 OFFCURVE",
"64 492 CURVE SMOOTH",
"62 654 OFFCURVE",
"239 724 OFFCURVE",
"294 724 CURVE SMOOTH",
"349 724 OFFCURVE",
"402 669 OFFCURVE",
"426 634 CURVE",
"334 571 LINE",
"310 604 OFFCURVE",
"274 641 OFFCURVE",
"212 644 CURVE SMOOTH",
"186 645 OFFCURVE",
"144 631 OFFCURVE",
"142 559 CURVE SMOOTH",
"140 487 OFFCURVE",
"224 430 OFFCURVE",
"275 407 CURVE SMOOTH",
"326 384 OFFCURVE",
"417 384 OFFCURVE",
"424 222 CURVE SMOOTH",
"431 60 OFFCURVE",
"267 -26 OFFCURVE",
"189 -26 CURVE SMOOTH"
);
}
);
width = 474;
},
{
layerId = "4B9CF309-7C6C-4E8F-98F9-807C6FC76924";
paths = (
{
closed = 1;
nodes = (
"124 -26 OFFCURVE",
"78 30 OFFCURVE",
"48 76 CURVE",
"147 146 LINE",
"180 94 OFFCURVE",
"224 59 OFFCURVE",
"281 55 CURVE SMOOTH",
"319 52 OFFCURVE",
"336 94 OFFCURVE",
"336 166 CURVE SMOOTH",
"336 240 OFFCURVE",
"262 269 OFFCURVE",
"212 297 CURVE SMOOTH",
"150 332 OFFCURVE",
"66 360 OFFCURVE",
"64 492 CURVE SMOOTH",
"62 654 OFFCURVE",
"239 724 OFFCURVE",
"294 724 CURVE SMOOTH",
"349 724 OFFCURVE",
"402 669 OFFCURVE",
"426 634 CURVE",
"334 571 LINE",
"310 604 OFFCURVE",
"274 641 OFFCURVE",
"212 644 CURVE SMOOTH",
"186 645 OFFCURVE",
"144 631 OFFCURVE",
"142 559 CURVE SMOOTH",
"140 487 OFFCURVE",
"224 430 OFFCURVE",
"275 407 CURVE SMOOTH",
"326 384 OFFCURVE",
"417 384 OFFCURVE",
"424 222 CURVE SMOOTH",
"431 60 OFFCURVE",
"267 -26 OFFCURVE",
"189 -26 CURVE SMOOTH"
);
}
);
width = 600;
}
);
unicode = 0053;
},
{
color = 0;
glyphname = T;
layers = (
{
layerId = "943837FD-2EA4-424D-A655-FFF98A08080F";
paths = (
{
closed = 1;
nodes = (
"233 0 LINE",
"233 700 LINE",
"361 700 LINE",
"361 0 LINE"
);
},
{
closed = 1;
nodes = (
"556 700 LINE",
"506 636 LINE",
"48 636 LINE",
"91 700 LINE"
);
}
);
width = 604;
},
{
layerId = "4B9CF309-7C6C-4E8F-98F9-807C6FC76924";
paths = (
{
closed = 1;
nodes = (
"233 0 LINE",
"233 700 LINE",
"361 700 LINE",
"361 0 LINE"
);
},
{
closed = 1;
nodes = (
"556 700 LINE",
"506 636 LINE",
"48 636 LINE",
"91 700 LINE"
);
}
);
width = 600;
}
);
unicode = 0054;
},
{
color = 0;
glyphname = U;
layers = (
{
layerId = "943837FD-2EA4-424D-A655-FFF98A08080F";
paths = (
{
closed = 1;
nodes = (
"440 700 LINE",
"568 700 LINE",
"568 0 LINE",
"440 0 LINE"
);
},
{
closed = 1;
nodes = (
"407 19 OFFCURVE",
"360 -23 OFFCURVE",
"252 -23 CURVE SMOOTH",
"125 -23 OFFCURVE",
"53 50 OFFCURVE",
"52 212 CURVE SMOOTH",
"48 698 LINE",
"164 700 LINE",
"163 269 LINE SMOOTH",
"163 107 OFFCURVE",
"258 57 OFFCURVE",
"320 58 CURVE SMOOTH",
"382 59 OFFCURVE",
"407 84 OFFCURVE",
"451 141 CURVE",
"451 79 LINE"
);
}
);
width = 616;
},
{
layerId = "4B9CF309-7C6C-4E8F-98F9-807C6FC76924";
paths = (
{
closed = 1;
nodes = (
"316 700 LINE",
"544 700 LINE",
"544 0 LINE",
"316 0 LINE"
);
},
{
closed = 1;
nodes = (
"353 69 OFFCURVE",
"306 -23 OFFCURVE",
"228 -23 CURVE SMOOTH",
"101 -23 OFFCURVE",
"29 50 OFFCURVE",
"28 212 CURVE SMOOTH",
"24 698 LINE",
"270 700 LINE",
"271 269 LINE SMOOTH",
"271 187 OFFCURVE",
"274 117 OFFCURVE",
"296 118 CURVE SMOOTH",
"358 121 OFFCURVE",
"386 136 OFFCURVE",
"397 161 CURVE",
"397 129 LINE"
);
}
);
width = 568;
}
);
unicode = 0055;
},
{
color = 0;
glyphname = V;
layers = (
{
layerId = "943837FD-2EA4-424D-A655-FFF98A08080F";
paths = (
{
closed = 1;
nodes = (
"347 86 LINE",
"367 86 LINE",
"157 712 LINE",
"48 681 LINE",
"269 0 LINE",
"377 0 LINE",
"632 704 LINE",
"552 702 LINE"
);
}
);
width = 680;
},
{
layerId = "4B9CF309-7C6C-4E8F-98F9-807C6FC76924";
paths = (
{
closed = 1;
nodes = (
"347 86 LINE",
"367 86 LINE",
"157 712 LINE",
"48 681 LINE",
"269 0 LINE",
"377 0 LINE",
"632 704 LINE",
"552 702 LINE"
);
}
);
width = 600;
}
);
unicode = 0056;
},
{
color = 0;
glyphname = W;
layers = (
{
layerId = "943837FD-2EA4-424D-A655-FFF98A08080F";
paths = (
{
closed = 1;
nodes = (
"648 86 LINE",
"668 86 LINE",
"458 700 LINE",
"326 700 LINE",
"570 0 LINE",
"678 0 LINE",
"933 704 LINE",
"853 702 LINE"
);
},
{
closed = 1;
nodes = (
"347 86 LINE",
"367 86 LINE",
"157 702 LINE",
"32 700 LINE",
"269 0 LINE",
"377 0 LINE",
"632 704 LINE",
"552 702 LINE"
);
}
);
width = 982;
},
{
layerId = "4B9CF309-7C6C-4E8F-98F9-807C6FC76924";
paths = (
{
closed = 1;
nodes = (
"688 236 LINE",
"708 236 LINE",
"622 700 LINE",
"369 700 LINE",
"520 0 LINE",
"728 0 LINE",
"964 700 LINE",
"823 703 LINE"
);
},
{
closed = 1;
nodes = (
"374 250 LINE",
"403 250 LINE",
"258 700 LINE",
"8 700 LINE",
"199 0 LINE",
"387 0 LINE",
"569 700 LINE",
"473 697 LINE"
);
}
);
width = 982;
}
);
unicode = 0057;
},
{
color = 0;
glyphname = X;
layers = (
{
layerId = "943837FD-2EA4-424D-A655-FFF98A08080F";
paths = (
{
closed = 1;
nodes = (
"178 700 LINE",
"539 -1 LINE",
"405 1 LINE",
"58 700 LINE"
);
},
{
closed = 1;
nodes = (
"48 2 LINE",
"264 368 LINE",
"306 318 LINE",
"141 1 LINE"
);
},
{
closed = 1;
nodes = (
"443 701 LINE",
"535 701 LINE",
"328 360 LINE",
"291 407 LINE"
);
}
);
width = 587;
},
{
layerId = "4B9CF309-7C6C-4E8F-98F9-807C6FC76924";
paths = (
{
closed = 1;
nodes = (
"178 700 LINE",
"539 -1 LINE",
"405 1 LINE",
"58 700 LINE"
);
},
{
closed = 1;
nodes = (
"48 2 LINE",
"264 368 LINE",
"306 318 LINE",
"141 1 LINE"
);
},
{
closed = 1;
nodes = (
"443 701 LINE",
"535 701 LINE",
"328 360 LINE",
"291 407 LINE"
);
}
);
width = 600;
}
);
unicode = 0058;
},
{
color = 0;
glyphname = Y;
layers = (
{
layerId = "943837FD-2EA4-424D-A655-FFF98A08080F";
paths = (
{
closed = 1;
nodes = (
"225 7 LINE",
"229 292 LINE",
"48 679 LINE",
"149 714 LINE",
"319 347 LINE",
"292 350 LINE",
"458 707 LINE",
"514 693 LINE",
"336 289 LINE",
"340 7 LINE"
);
}
);
width = 562;
},
{
layerId = "4B9CF309-7C6C-4E8F-98F9-807C6FC76924";
paths = (
{
closed = 1;
nodes = (
"225 7 LINE",
"229 292 LINE",
"48 679 LINE",
"149 714 LINE",
"319 347 LINE",
"292 350 LINE",
"458 707 LINE",
"514 693 LINE",
"336 289 LINE",
"340 7 LINE"
);
}
);
width = 600;
}
);
unicode = 0059;
},
{
color = 0;
glyphname = Z;
layers = (
{
layerId = "943837FD-2EA4-424D-A655-FFF98A08080F";
paths = (
{
closed = 1;
nodes = (
"48 0 LINE",
"365 617 LINE",
"55 616 LINE",
"90 700 LINE",
"504 700 LINE",
"191 85 LINE",
"512 87 LINE",
"486 0 LINE"
);
}
);
width = 560;
},
{
layerId = "4B9CF309-7C6C-4E8F-98F9-807C6FC76924";
paths = (
{
closed = 1;
nodes = (
"48 0 LINE",
"365 617 LINE",
"55 616 LINE",
"90 700 LINE",
"504 700 LINE",
"191 85 LINE",
"512 87 LINE",
"486 0 LINE"
);
}
);
width = 600;
}
);
unicode = 005A;
},
{
color = 0;
glyphname = a;
layers = (
{
layerId = "943837FD-2EA4-424D-A655-FFF98A08080F";
paths = (
{
closed = 1;
nodes = (
"428 0 LINE",
"428 350 LINE SMOOTH",
"428 438 OFFCURVE",
"299 508 OFFCURVE",
"212 508 QCURVE SMOOTH",
"193 508 OFFCURVE",
"91 445 OFFCURVE",
"48 406 QCURVE",
"72 384 LINE",
"131 436 OFFCURVE",
"199 436 QCURVE SMOOTH",
"264 436 OFFCURVE",
"321 378 OFFCURVE",
"321 330 QCURVE SMOOTH",
"321 0 LINE"
);
},
{
closed = 1;
nodes = (
"335 99 LINE",
"310 83 OFFCURVE",
"269 70 OFFCURVE",
"247 70 QCURVE SMOOTH",
"197 70 OFFCURVE",
"131 144 OFFCURVE",
"131 190 QCURVE SMOOTH",
"131 219 OFFCURVE",
"169 250 OFFCURVE",
"204 250 QCURVE SMOOTH",
"241 250 OFFCURVE",
"315 236 OFFCURVE",
"340 223 QCURVE",
"343 290 LINE",
"208 290 LINE SMOOTH",
"131 290 OFFCURVE",
"31 186 OFFCURVE",
"30 126 QCURVE SMOOTH",
"29 83 OFFCURVE",
"106 -21 OFFCURVE",
"163 -21 QCURVE SMOOTH",
"191 -21 OFFCURVE",
"287 29 OFFCURVE",
"335 63 QCURVE"
);
}
);
width = 458;
},
{
layerId = "4B9CF309-7C6C-4E8F-98F9-807C6FC76924";
paths = (
{
closed = 1;
nodes = (
"428 0 LINE",
"428 330 LINE SMOOTH",
"428 418 OFFCURVE",
"329 508 OFFCURVE",
"232 508 QCURVE SMOOTH",
"203 508 OFFCURVE",
"91 445 OFFCURVE",
"48 406 QCURVE",
"106 338 LINE",
"153 356 OFFCURVE",
"199 346 QCURVE SMOOTH",
"272 346 OFFCURVE",
"274 346 OFFCURVE",
"274 330 QCURVE SMOOTH",
"274 0 LINE"
);
},
{
closed = 1;
nodes = (
"305 119 LINE",
"280 103 OFFCURVE",
"259 100 OFFCURVE",
"247 100 QCURVE SMOOTH",
"227 100 OFFCURVE",
"211 124 OFFCURVE",
"211 140 QCURVE SMOOTH",
"211 189 OFFCURVE",
"239 220 OFFCURVE",
"274 220 QCURVE SMOOTH",
"311 220 OFFCURVE",
"325 209 OFFCURVE",
"340 193 QCURVE",
"343 310 LINE",
"226 310 LINE SMOOTH",
"144 310 OFFCURVE",
"31 186 OFFCURVE",
"30 126 QCURVE SMOOTH",
"29 83 OFFCURVE",
"106 -21 OFFCURVE",
"163 -21 QCURVE SMOOTH",
"211 -21 OFFCURVE",
"274 49 OFFCURVE",
"305 83 QCURVE"
);
}
);
width = 458;
}
);
unicode = 0061;
},
{
color = 1;
glyphname = b;
layers = (
{
layerId = "943837FD-2EA4-424D-A655-FFF98A08080F";
paths = (
{
closed = 1;
nodes = (
"30 700 LINE",
"142 700 LINE",
"142 82 LINE",
"200 54 OFFCURVE",
"264 55 QCURVE",
"334 116 OFFCURVE",
"334 260 QCURVE SMOOTH",
"334 325 OFFCURVE",
"272 422 OFFCURVE",
"208 422 QCURVE SMOOTH",
"134 397 LINE",
"103 455 LINE",
"218 516 LINE",
"335 516 OFFCURVE",
"444 384 OFFCURVE",
"444 307 QCURVE SMOOTH",
"444 145 OFFCURVE",
"289 0 OFFCURVE",
"199 -16 QCURVE",
"103 -17 OFFCURVE",
"33 25 QCURVE"
);
}
);
width = 444;
},
{
layerId = "4B9CF309-7C6C-4E8F-98F9-807C6FC76924";
paths = (
{
closed = 1;
nodes = (
"30 700 LINE",
"202 700 LINE",
"202 122 LINE",
"202 105 OFFCURVE",
"224 95 QCURVE",
"248 95 OFFCURVE",
"248 150 QCURVE SMOOTH",
"248 274 OFFCURVE",
"239 367 OFFCURVE",
"218 367 QCURVE",
"194 367 LINE",
"163 455 LINE",
"278 516 LINE",
"355 516 OFFCURVE",
"444 384 OFFCURVE",
"444 307 QCURVE SMOOTH",
"444 145 OFFCURVE",
"289 0 OFFCURVE",
"199 -16 QCURVE",
"103 -17 OFFCURVE",
"33 25 QCURVE"
);
}
);
width = 444;
}
);
unicode = 0062;
},
{
color = 0;
glyphname = c;
layers = (
{
layerId = "943837FD-2EA4-424D-A655-FFF98A08080F";
paths = (
{
closed = 1;
nodes = (
"312 -10 OFFCURVE",
"396 29 OFFCURVE",
"438 64 QCURVE",
"418 90 LINE",
"394 73 OFFCURVE",
"349 59 OFFCURVE",
"318 59 QCURVE SMOOTH",
"245 59 OFFCURVE",
"143 199 OFFCURVE",
"143 281 QCURVE SMOOTH",
"143 357 OFFCURVE",
"188 446 OFFCURVE",
"216 446 QCURVE SMOOTH",
"246 446 OFFCURVE",
"312 394 OFFCURVE",
"329 352 QCURVE",
"425 400 LINE",
"425 435 OFFCURVE",
"354 516 OFFCURVE",
"283 516 QCURVE SMOOTH",
"200 516 OFFCURVE",
"32 339 OFFCURVE",
"32 215 QCURVE SMOOTH",
"32 111 OFFCURVE",
"164 -10 OFFCURVE",
"260 -10 QCURVE SMOOTH"
);
}
);
width = 470;
},
{
layerId = "4B9CF309-7C6C-4E8F-98F9-807C6FC76924";
paths = (
{
closed = 1;
nodes = (
"342 -10 OFFCURVE",
"408 19 OFFCURVE",
"438 64 QCURVE",
"418 169 LINE",
"374 169 OFFCURVE",
"349 169 OFFCURVE",
"318 169 QCURVE SMOOTH",
"245 169 OFFCURVE",
"223 199 OFFCURVE",
"223 281 QCURVE SMOOTH",
"223 417 OFFCURVE",
"238 426 OFFCURVE",
"246 426 QCURVE SMOOTH",
"259 426 OFFCURVE",
"269 376 OFFCURVE",
"279 302 QCURVE",
"438 350 LINE",
"438 435 OFFCURVE",
"394 516 OFFCURVE",
"283 516 QCURVE SMOOTH",
"80 516 OFFCURVE",
"32 429 OFFCURVE",
"32 215 QCURVE SMOOTH",
"32 41 OFFCURVE",
"124 -10 OFFCURVE",
"260 -10 QCURVE SMOOTH"
);
}
);
width = 470;
}
);
unicode = 0063;
},
{
color = 0;
glyphname = d;
layers = (
{
layerId = "943837FD-2EA4-424D-A655-FFF98A08080F";
paths = (
{
closed = 1;
nodes = (
"474 0 LINE",
"474 700 LINE",
"360 700 LINE",
"360 0 LINE"
);
},
{
closed = 1;
nodes = (
"380 123 LINE",
"285 58 LINE",
"237 57 OFFCURVE",
"175 117 OFFCURVE",
"147 204 OFFCURVE",
"147 246 QCURVE SMOOTH",
"147 337 OFFCURVE",
"182 457 OFFCURVE",
"232 457 QCURVE SMOOTH",
"277 457 OFFCURVE",
"348 439 OFFCURVE",
"380 420 QCURVE",
"380 503 LINE",
"331 517 OFFCURVE",
"282 517 QCURVE SMOOTH",
"211 517 OFFCURVE",
"98 429 OFFCURVE",
"32 278 OFFCURVE",
"32 187 QCURVE SMOOTH",
"31 74 OFFCURVE",
"161 -24 OFFCURVE",
"254 -22 QCURVE",
"380 70 LINE"
);
}
);
width = 506;
},
{
layerId = "4B9CF309-7C6C-4E8F-98F9-807C6FC76924";
paths = (
{
closed = 1;
nodes = (
"474 0 LINE",
"474 700 LINE",
"300 700 LINE",
"300 0 LINE"
);
},
{
closed = 1;
nodes = (
"320 123 LINE",
"279 91 LINE",
"251 90 OFFCURVE",
"237 164 OFFCURVE",
"237 246 QCURVE SMOOTH",
"237 337 OFFCURVE",
"246 457 OFFCURVE",
"266 457 QCURVE SMOOTH",
"311 457 OFFCURVE",
"303 439 OFFCURVE",
"320 420 QCURVE",
"320 503 LINE",
"291 517 OFFCURVE",
"242 517 QCURVE SMOOTH",
"111 517 OFFCURVE",
"32 328 OFFCURVE",
"32 187 QCURVE SMOOTH",
"32 74 OFFCURVE",
"101 -24 OFFCURVE",
"194 -22 QCURVE",
"320 70 LINE"
);
}
);
width = 506;
}
);
unicode = 0064;
},
{
color = 0;
glyphname = e;
layers = (
{
layerId = "943837FD-2EA4-424D-A655-FFF98A08080F";
paths = (
{
closed = 1;
nodes = (
"420 90 LINE",
"381 74 OFFCURVE",
"338 54 OFFCURVE",
"290 60 QCURVE SMOOTH",
"225 68 OFFCURVE",
"140 185 OFFCURVE",
"140 270 QCURVE SMOOTH",
"140 371 OFFCURVE",
"175 460 OFFCURVE",
"210 460 QCURVE SMOOTH",
"241 460 OFFCURVE",
"320 378 OFFCURVE",
"320 300 QCURVE",
"110 300 LINE",
"110 250 LINE",
"350 250 LINE",
"420 310 LINE",
"418 420 OFFCURVE",
"338 520 OFFCURVE",
"270 520 QCURVE SMOOTH",
"163 520 OFFCURVE",
"33 378 OFFCURVE",
"30 220 QCURVE SMOOTH",
"28 102 OFFCURVE",
"170 -12 OFFCURVE",
"290 -10 QCURVE",
"430 70 LINE"
);
}
);
width = 462;
},
{
layerId = "4B9CF309-7C6C-4E8F-98F9-807C6FC76924";
paths = (
{
closed = 1;
nodes = (
"429 172 LINE",
"382 145 OFFCURVE",
"326 134 OFFCURVE",
"297 133 CURVE SMOOTH",
"238 130 OFFCURVE",
"211 181 OFFCURVE",
"211 270 CURVE SMOOTH",
"211 432 OFFCURVE",
"212 460 OFFCURVE",
"229 460 CURVE SMOOTH",
"249 460 OFFCURVE",
"253 435 OFFCURVE",
"253 303 CURVE",
"160 303 LINE",
"160 220 LINE",
"379 220 LINE",
"449 308 LINE",
"448 430 OFFCURVE",
"409 520 OFFCURVE",
"240 520 CURVE SMOOTH",
"117 520 OFFCURVE",
"25 434 OFFCURVE",
"25 217 CURVE SMOOTH",
"25 57 OFFCURVE",
"98 -12 OFFCURVE",
"307 -11 CURVE",
"459 86 LINE"
);
}
);
width = 462;
},
{
associatedMasterId = "943837FD-2EA4-424D-A655-FFF98A08080F";
layerId = "FE178CEB-6986-40E9-AE18-C5C0DAE1822B";
name = "Oct 20 18, 17:58";
paths = (
{
closed = 1;
nodes = (
"419 92 LINE",
"388 74 OFFCURVE",
"331 64 OFFCURVE",
"297 63 QCURVE SMOOTH",
"255 62 OFFCURVE",
"180 130 OFFCURVE",
"135 225 OFFCURVE",
"135 270 QCURVE SMOOTH",
"135 332 OFFCURVE",
"160 420 OFFCURVE",
"189 460 OFFCURVE",
"207 460 QCURVE SMOOTH",
"241 460 OFFCURVE",
"290 410 OFFCURVE",
"321 340 OFFCURVE",
"321 303 QCURVE",
"108 303 LINE",
"108 250 LINE",
"349 250 LINE",
"419 308 LINE",
"418 392 OFFCURVE",
"359 520 OFFCURVE",
"268 520 QCURVE SMOOTH",
"203 520 OFFCURVE",
"100 460 OFFCURVE",
"32 321 OFFCURVE",
"32 217 QCURVE SMOOTH",
"32 102 OFFCURVE",
"170 -12 OFFCURVE",
"287 -11 QCURVE",
"430 66 LINE"
);
}
);
visible = 1;
width = 462;
}
);
unicode = 0065;
},
{
color = 0;
glyphname = f;
layers = (
{
layerId = "943837FD-2EA4-424D-A655-FFF98A08080F";
paths = (
{
closed = 1;
nodes = (
"86 0 LINE",
"86 566 LINE SMOOTH",
"86 622 OFFCURVE",
"212 750 OFFCURVE",
"263 750 CURVE SMOOTH",
"319 750 LINE",
"280 684 LINE",
"219 684 LINE SMOOTH",
"199 684 OFFCURVE",
"187 669 OFFCURVE",
"187 646 CURVE SMOOTH",
"195 0 LINE"
);
},
{
closed = 1;
nodes = (
"297 500 LINE",
"268 450 LINE",
"16 450 LINE",
"49 500 LINE"
);
}
);
width = 256;
},
{
layerId = "4B9CF309-7C6C-4E8F-98F9-807C6FC76924";
paths = (
{
closed = 1;
nodes = (
"86 0 LINE",
"86 566 LINE SMOOTH",
"86 622 OFFCURVE",
"212 750 OFFCURVE",
"263 750 CURVE SMOOTH",
"319 750 LINE",
"280 684 LINE",
"219 684 LINE SMOOTH",
"199 684 OFFCURVE",
"187 669 OFFCURVE",
"187 646 CURVE SMOOTH",
"195 0 LINE"
);
},
{
closed = 1;
nodes = (
"297 500 LINE",
"268 450 LINE",
"16 450 LINE",
"49 500 LINE"
);
}
);
width = 256;
}
);
unicode = 0066;
},
{
color = 0;
glyphname = g;
layers = (
{
layerId = "943837FD-2EA4-424D-A655-FFF98A08080F";
paths = (
{
closed = 1;
nodes = (
"43 48 LINE",
"43 -2 OFFCURVE",
"147 -18 OFFCURVE",
"237 -17 CURVE SMOOTH",
"347 -16 OFFCURVE",
"366 -58 OFFCURVE",
"370 -102 CURVE SMOOTH",
"374 -146 OFFCURVE",
"347 -174 OFFCURVE",
"260 -176 CURVE SMOOTH",
"173 -178 OFFCURVE",
"127 -121 OFFCURVE",
"126 -90 CURVE SMOOTH",
"125 -68 OFFCURVE",
"144 -36 OFFCURVE",
"185 -3 CURVE",
"154 7 LINE",
"32 -129 LINE",
"33 -179 OFFCURVE",
"55 -250 OFFCURVE",
"201 -249 CURVE SMOOTH",
"347 -248 OFFCURVE",
"464 -161 OFFCURVE",
"456 -44 CURVE SMOOTH",
"448 73 OFFCURVE",
"276 69 OFFCURVE",
"238 67 CURVE SMOOTH",
"155 62 OFFCURVE",
"124 71 OFFCURVE",
"124 94 CURVE SMOOTH",
"124 114 OFFCURVE",
"140 135 OFFCURVE",
"151 153 CURVE",
"133 172 LINE"
);
},
{
closed = 1;
nodes = (
"173 510 OFFCURVE",
"36 404 OFFCURVE",
"39 288 CURVE SMOOTH",
"42 172 OFFCURVE",
"134 122 OFFCURVE",
"208 123 CURVE SMOOTH",
"302 124 OFFCURVE",
"453 210 OFFCURVE",
"453 342 CURVE SMOOTH",
"453 379 OFFCURVE",
"444 434 OFFCURVE",
"366 477 CURVE",
"366 449 LINE",
"459 478 LINE",
"459 510 LINE",
"273 510 LINE"
);
},
{
closed = 1;
nodes = (
"272 446 OFFCURVE",
"356 382 OFFCURVE",
"358 302 CURVE SMOOTH",
"360 212 OFFCURVE",
"311 189 OFFCURVE",
"269 188 CURVE SMOOTH",
"227 187 OFFCURVE",
"139 233 OFFCURVE",
"138 331 CURVE SMOOTH",
"137 409 OFFCURVE",
"171 446 OFFCURVE",
"221 446 CURVE SMOOTH"
);
}
);
width = 491;
},
{
layerId = "4B9CF309-7C6C-4E8F-98F9-807C6FC76924";
paths = (
{
closed = 1;
nodes = (
"43 48 LINE",
"43 -2 OFFCURVE",
"147 -18 OFFCURVE",
"237 -17 CURVE SMOOTH",
"347 -16 OFFCURVE",
"366 -58 OFFCURVE",
"370 -102 CURVE SMOOTH",
"374 -146 OFFCURVE",
"347 -174 OFFCURVE",
"260 -176 CURVE SMOOTH",
"173 -178 OFFCURVE",
"127 -121 OFFCURVE",
"126 -90 CURVE SMOOTH",
"125 -68 OFFCURVE",
"144 -36 OFFCURVE",
"185 -3 CURVE",
"154 7 LINE",
"32 -129 LINE",
"33 -179 OFFCURVE",
"55 -250 OFFCURVE",
"201 -249 CURVE SMOOTH",
"347 -248 OFFCURVE",
"464 -161 OFFCURVE",
"456 -44 CURVE SMOOTH",
"448 73 OFFCURVE",
"276 69 OFFCURVE",
"238 67 CURVE SMOOTH",
"155 62 OFFCURVE",
"124 71 OFFCURVE",
"124 94 CURVE SMOOTH",
"124 114 OFFCURVE",
"140 135 OFFCURVE",
"151 153 CURVE",
"133 172 LINE"
);
},
{
closed = 1;
nodes = (
"173 510 OFFCURVE",
"36 404 OFFCURVE",
"39 288 CURVE SMOOTH",
"42 172 OFFCURVE",
"134 122 OFFCURVE",
"208 123 CURVE SMOOTH",
"302 124 OFFCURVE",
"453 210 OFFCURVE",
"453 342 CURVE SMOOTH",
"453 379 OFFCURVE",
"444 434 OFFCURVE",
"366 477 CURVE",
"366 449 LINE",
"459 478 LINE",
"459 510 LINE",
"273 510 LINE"
);
},
{
closed = 1;
nodes = (
"272 446 OFFCURVE",
"356 382 OFFCURVE",
"358 302 CURVE SMOOTH",
"360 212 OFFCURVE",
"311 189 OFFCURVE",
"269 188 CURVE SMOOTH",
"227 187 OFFCURVE",
"139 233 OFFCURVE",
"138 331 CURVE SMOOTH",
"137 409 OFFCURVE",
"171 446 OFFCURVE",
"221 446 CURVE SMOOTH"
);
}
);
width = 600;
}
);
unicode = 0067;
},
{
color = 0;
glyphname = h;
layers = (
{
layerId = "943837FD-2EA4-424D-A655-FFF98A08080F";
paths = (
{
closed = 1;
nodes = (
"134 240 OFFCURVE",
"134 480 OFFCURVE",
"134 720 CURVE",
"100 713 OFFCURVE",
"66 707 OFFCURVE",
"32 700 CURVE",
"32 467 OFFCURVE",
"32 233 OFFCURVE",
"32 0 CURVE",
"66 0 OFFCURVE",
"100 0 OFFCURVE",
"134 0 CURVE"
);
},
{
closed = 1;
nodes = (
"113 384 LINE",
"147 401 OFFCURVE",
"180 417 OFFCURVE",
"214 434 CURVE",
"260 434 OFFCURVE",
"327 414 OFFCURVE",
"327 330 CURVE SMOOTH",
"327 220 OFFCURVE",
"327 110 OFFCURVE",
"327 0 CURVE",
"361 0 OFFCURVE",
"394 0 OFFCURVE",
"428 0 CURVE",
"428 97 OFFCURVE",
"428 193 OFFCURVE",
"428 290 CURVE SMOOTH",
"428 454 OFFCURVE",
"377 512 OFFCURVE",
"287 512 CURVE",
"229 484 OFFCURVE",
"171 456 OFFCURVE",
"113 428 CURVE"
);
}
);
width = 460;
},
{
layerId = "4B9CF309-7C6C-4E8F-98F9-807C6FC76924";
paths = (
{
closed = 1;
nodes = (
"189 240 OFFCURVE",
"189 480 OFFCURVE",
"199 720 CURVE",
"165 713 OFFCURVE",
"54 707 OFFCURVE",
"20 700 CURVE",
"30 467 OFFCURVE",
"30 233 OFFCURVE",
"20 0 CURVE",
"54 14 OFFCURVE",
"165 11 OFFCURVE",
"199 0 CURVE"
);
},
{
closed = 1;
nodes = (
"113 384 LINE",
"147 411 OFFCURVE",
"180 424 OFFCURVE",
"214 434 CURVE",
"260 434 OFFCURVE",
"286 414 OFFCURVE",
"287 330 CURVE SMOOTH",
"288 220 OFFCURVE",
"277 110 OFFCURVE",
"267 0 CURVE",
"324 10 OFFCURVE",
"381 10 OFFCURVE",
"438 0 CURVE",
"446 97 OFFCURVE",
"454 205 OFFCURVE",
"454 322 CURVE SMOOTH",
"454 486 OFFCURVE",
"377 512 OFFCURVE",
"287 512 CURVE",
"229 479 OFFCURVE",
"171 450 OFFCURVE",
"113 428 CURVE"
);
}
);
width = 460;
}
);
unicode = 0068;
},
{
color = 0;
glyphname = i;
layers = (
{
layerId = "943837FD-2EA4-424D-A655-FFF98A08080F";
paths = (
{
closed = 1;
nodes = (
"165 0 LINE",
"165 500 LINE",
"53 500 LINE",
"53 0 LINE"
);
},
{
closed = 1;
nodes = (
"178 657 LINE",
"109 726 LINE",
"40 657 LINE",
"109 588 LINE"
);
}
);
width = 218;
},
{
layerId = "4B9CF309-7C6C-4E8F-98F9-807C6FC76924";
paths = (
{
closed = 1;
nodes = (
"193 0 LINE",
"194 500 LINE",
"18 500 LINE",
"18 0 LINE"
);
},
{
closed = 1;
nodes = (
"218 642 LINE",
"110 750 LINE",
"0 642 LINE",
"110 532 LINE"
);
}
);
width = 218;
}
);
unicode = 0069;
},
{
color = 0;
glyphname = j;
layers = (
{
layerId = "943837FD-2EA4-424D-A655-FFF98A08080F";
paths = (
{
closed = 1;
nodes = (
"144 -230 LINE",
"144 500 LINE",
"32 500 LINE",
"32 -230 LINE"
);
},
{
closed = 1;
nodes = (
"167 637 LINE",
"88 716 LINE",
"9 637 LINE",
"88 558 LINE"
);
}
);
width = 188;
},
{
layerId = "4B9CF309-7C6C-4E8F-98F9-807C6FC76924";
paths = (
{
closed = 1;
nodes = (
"144 -230 LINE",
"144 500 LINE",
"32 500 LINE",
"32 -230 LINE"
);
},
{
closed = 1;
nodes = (
"167 637 LINE",
"88 716 LINE",
"9 637 LINE",
"88 558 LINE"
);
}
);
width = 188;
}
);
unicode = 006A;
},
{
color = 0;
glyphname = k;
layers = (
{
layerId = "943837FD-2EA4-424D-A655-FFF98A08080F";
paths = (
{
closed = 1;
nodes = (
"135 0 LINE",
"141 720 LINE",
"32 700 LINE",
"32 0 LINE"
);
},
{
closed = 1;
nodes = (
"128 262 LINE",
"128 239 LINE",
"350 -19 LINE",
"457 39 LINE",
"235 291 LINE",
"439 501 LINE",
"351 501 LINE"
);
}
);
width = 489;
},
{
layerId = "4B9CF309-7C6C-4E8F-98F9-807C6FC76924";
paths = (
{
closed = 1;
nodes = (
"135 0 LINE",
"141 720 LINE",
"32 700 LINE",
"32 0 LINE"
);
},
{
closed = 1;
nodes = (
"128 262 LINE",
"128 239 LINE",
"350 -19 LINE",
"457 39 LINE",
"235 291 LINE",
"439 501 LINE",
"351 501 LINE"
);
}
);
width = 554;
}
);
unicode = 006B;
},
{
color = 0;
glyphname = l;
layers = (
{
layerId = "943837FD-2EA4-424D-A655-FFF98A08080F";
paths = (
{
closed = 1;
nodes = (
"146 0 LINE",
"146 720 LINE",
"32 700 LINE",
"32 0 LINE"
);
}
);
width = 178;
},
{
layerId = "4B9CF309-7C6C-4E8F-98F9-807C6FC76924";
paths = (
{
closed = 1;
nodes = (
"244 0 LINE",
"244 720 LINE",
"30 700 LINE",
"30 0 LINE"
);
}
);
width = 268;
}
);
unicode = 006C;
},
{
color = 0;
glyphname = m;
layers = (
{
layerId = "943837FD-2EA4-424D-A655-FFF98A08080F";
paths = (
{
closed = 1;
nodes = (
"134 520 LINE",
"32 500 LINE",
"32 0 LINE",
"134 0 LINE"
);
},
{
closed = 1;
nodes = (
"113 384 LINE",
"187 430 LINE",
"233 430 OFFCURVE",
"301 414 OFFCURVE",
"301 330 CURVE SMOOTH",
"301 0 LINE",
"402 0 LINE",
"402 290 LINE SMOOTH",
"402 454 OFFCURVE",
"351 512 OFFCURVE",
"261 512 CURVE",
"113 428 LINE"
);
},
{
closed = 1;
nodes = (
"373 384 LINE",
"447 428 LINE",
"493 428 OFFCURVE",
"561 414 OFFCURVE",
"561 330 CURVE SMOOTH",
"561 0 LINE",
"662 0 LINE",
"662 290 LINE SMOOTH",
"662 454 OFFCURVE",
"611 512 OFFCURVE",
"521 512 CURVE",
"373 428 LINE"
);
}
);
width = 694;
},
{
layerId = "4B9CF309-7C6C-4E8F-98F9-807C6FC76924";
paths = (
{
closed = 1;
nodes = (
"134 520 LINE",
"32 500 LINE",
"32 0 LINE",
"134 0 LINE"
);
},
{
closed = 1;
nodes = (
"113 384 LINE",
"187 430 LINE",
"233 430 OFFCURVE",
"301 414 OFFCURVE",
"301 330 CURVE SMOOTH",
"301 0 LINE",
"402 0 LINE",
"402 290 LINE SMOOTH",
"402 454 OFFCURVE",
"351 512 OFFCURVE",
"261 512 CURVE",
"113 428 LINE"
);
},
{
closed = 1;
nodes = (
"373 384 LINE",
"447 428 LINE",
"493 428 OFFCURVE",
"561 414 OFFCURVE",
"561 330 CURVE SMOOTH",
"561 0 LINE",
"662 0 LINE",
"662 290 LINE SMOOTH",
"662 454 OFFCURVE",
"611 512 OFFCURVE",
"521 512 CURVE",
"373 428 LINE"
);
}
);
width = 600;
}
);
unicode = 006D;
},
{
color = 0;
glyphname = n;
layers = (
{
layerId = "943837FD-2EA4-424D-A655-FFF98A08080F";
paths = (
{
closed = 1;
nodes = (
"134 522 LINE",
"32 500 LINE",
"42 0 LINE",
"144 0 LINE"
);
},
{
closed = 1;
nodes = (
"113 374 LINE",
"214 424 LINE",
"269 437 OFFCURVE",
"326 386 OFFCURVE",
"326 330 QCURVE SMOOTH",
"322 1 LINE",
"434 0 LINE",
"428 300 LINE",
"429 429 OFFCURVE",
"357 519 OFFCURVE",
"287 512 QCURVE",
"113 428 LINE"
);
}
);
width = 460;
},
{
layerId = "4B9CF309-7C6C-4E8F-98F9-807C6FC76924";
paths = (
{
closed = 1;
nodes = (
"184 501 LINE",
"22 500 LINE",
"22 0 LINE",
"184 0 LINE"
);
},
{
closed = 1;
nodes = (
"113 304 LINE",
"214 354 LINE",
"237 354 OFFCURVE",
"252 326 OFFCURVE",
"252 290 QCURVE SMOOTH",
"252 1 LINE",
"440 0 LINE",
"440 300 LINE",
"441 429 OFFCURVE",
"358 512 OFFCURVE",
"287 512 QCURVE",
"113 428 LINE"
);
}
);
width = 460;
}
);
unicode = 006E;
},
{
color = 0;
glyphname = o;
layers = (
{
layerId = "943837FD-2EA4-424D-A655-FFF98A08080F";
paths = (
{
closed = 1;
nodes = (
"155 510 OFFCURVE",
"32 301 OFFCURVE",
"32 191 QCURVE SMOOTH",
"32 86 OFFCURVE",
"155 -10 OFFCURVE",
"272 -10 QCURVE",
"332 -10 OFFCURVE",
"482 146 OFFCURVE",
"482 261 QCURVE SMOOTH",
"482 377 OFFCURVE",
"355 510 OFFCURVE",
"237 510 QCURVE"
);
},
{
closed = 1;
nodes = (
"131 363 OFFCURVE",
"187 441 OFFCURVE",
"237 441 QCURVE",
"297 441 OFFCURVE",
"391 335 OFFCURVE",
"391 232 QCURVE SMOOTH",
"391 156 OFFCURVE",
"335 71 OFFCURVE",
"287 71 QCURVE",
"227 71 OFFCURVE",
"131 177 OFFCURVE",
"131 285 QCURVE SMOOTH"
);
}
);
width = 514;
},
{
layerId = "4B9CF309-7C6C-4E8F-98F9-807C6FC76924";
paths = (
{
closed = 1;
nodes = (
"145 520 OFFCURVE",
"12 371 OFFCURVE",
"12 191 QCURVE SMOOTH",
"12 96 OFFCURVE",
"145 -20 OFFCURVE",
"282 -20 QCURVE",
"372 -20 OFFCURVE",
"502 136 OFFCURVE",
"502 261 QCURVE SMOOTH",
"502 357 OFFCURVE",
"375 520 OFFCURVE",
"237 520 QCURVE"
);
},
{
closed = 1;
nodes = (
"218 346 OFFCURVE",
"238 391 OFFCURVE",
"254 391 QCURVE",
"298 391 OFFCURVE",
"298 391 OFFCURVE",
"298 232 QCURVE SMOOTH",
"298 162 OFFCURVE",
"278 132 OFFCURVE",
"264 132 QCURVE",
"218 132 OFFCURVE",
"218 132 OFFCURVE",
"218 285 QCURVE SMOOTH"
);
}
);
width = 514;
},
{
associatedMasterId = "943837FD-2EA4-424D-A655-FFF98A08080F";
layerId = "F815D526-B5FB-4A30-9C84-9AC0A65329C8";
name = "Oct 20 18, 13:01";
paths = (
{
closed = 1;
nodes = (
"403 -24 OFFCURVE",
"505 98 OFFCURVE",
"505 248 CURVE SMOOTH",
"505 398 OFFCURVE",
"403 520 OFFCURVE",
"253 520 CURVE SMOOTH",
"103 520 OFFCURVE",
"21 398 OFFCURVE",
"21 248 CURVE SMOOTH",
"21 98 OFFCURVE",
"103 -24 OFFCURVE",
"253 -24 CURVE SMOOTH"
);
}
);
visible = 1;
width = 514;
}
);
unicode = 006F;
},
{
color = 0;
glyphname = p;
layers = (
{
layerId = "943837FD-2EA4-424D-A655-FFF98A08080F";
paths = (
{
closed = 1;
nodes = (
"143 504 LINE",
"140 -235 LINE",
"34 -248 LINE",
"32 470 LINE"
);
},
{
closed = 1;
nodes = (
"251 516 LINE",
"355 516 OFFCURVE",
"460 478 OFFCURVE",
"456 290 CURVE SMOOTH",
"452 102 OFFCURVE",
"321 -22 OFFCURVE",
"224 -18 CURVE SMOOTH",
"177 -16 OFFCURVE",
"118 16 OFFCURVE",
"94 34 CURVE SMOOTH",
"70 52 OFFCURVE",
"109 99 OFFCURVE",
"108 105 CURVE SMOOTH",
"107 111 OFFCURVE",
"212 45 OFFCURVE",
"268 48 CURVE SMOOTH",
"324 51 OFFCURVE",
"345 185 OFFCURVE",
"343 243 CURVE SMOOTH",
"341 301 OFFCURVE",
"313 439 OFFCURVE",
"220 441 CURVE SMOOTH",
"127 443 OFFCURVE",
"143 356 OFFCURVE",
"142 321 CURVE",
"100 423 LINE",
"135 433 LINE"
);
}
);
width = 488;
},
{
layerId = "4B9CF309-7C6C-4E8F-98F9-807C6FC76924";
paths = (
{
closed = 1;
nodes = (
"143 504 LINE",
"140 -235 LINE",
"34 -248 LINE",
"32 470 LINE"
);
},
{
closed = 1;
nodes = (
"251 516 LINE",
"355 516 OFFCURVE",
"460 478 OFFCURVE",
"456 290 CURVE SMOOTH",
"452 102 OFFCURVE",
"321 -22 OFFCURVE",
"224 -18 CURVE SMOOTH",
"177 -16 OFFCURVE",
"118 16 OFFCURVE",
"94 34 CURVE SMOOTH",
"70 52 OFFCURVE",
"109 99 OFFCURVE",
"108 105 CURVE SMOOTH",
"107 111 OFFCURVE",
"212 45 OFFCURVE",
"268 48 CURVE SMOOTH",
"324 51 OFFCURVE",
"345 185 OFFCURVE",
"343 243 CURVE SMOOTH",
"341 301 OFFCURVE",
"313 439 OFFCURVE",
"220 441 CURVE SMOOTH",
"127 443 OFFCURVE",
"143 356 OFFCURVE",
"142 321 CURVE",
"100 423 LINE",
"135 433 LINE"
);
}
);
width = 600;
}
);
unicode = 0070;
},
{
color = 0;
glyphname = q;
layers = (
{
layerId = "943837FD-2EA4-424D-A655-FFF98A08080F";
paths = (
{
closed = 1;
nodes = (
"461 -249 LINE",
"461 491 LINE",
"352 456 LINE",
"352 -270 LINE"
);
},
{
closed = 1;
nodes = (
"461 491 LINE",
"416 500 OFFCURVE",
"318 511 OFFCURVE",
"283 511 CURVE SMOOTH",
"149 511 OFFCURVE",
"30 404 OFFCURVE",
"32 205 CURVE SMOOTH",
"33 73 OFFCURVE",
"89 -19 OFFCURVE",
"228 -18 CURVE",
"374 65 LINE",
"352 112 LINE",
"334 86 OFFCURVE",
"311 71 OFFCURVE",
"288 71 CURVE SMOOTH",
"217 71 OFFCURVE",
"132 132 OFFCURVE",
"132 248 CURVE SMOOTH",
"132 319 OFFCURVE",
"160 451 OFFCURVE",
"214 451 CURVE SMOOTH",
"270 451 OFFCURVE",
"317 435 OFFCURVE",
"352 412 CURVE"
);
}
);
width = 493;
},
{
layerId = "4B9CF309-7C6C-4E8F-98F9-807C6FC76924";
paths = (
{
closed = 1;
nodes = (
"461 -249 LINE",
"461 491 LINE",
"352 456 LINE",
"352 -270 LINE"
);
},
{
closed = 1;
nodes = (
"461 491 LINE",
"416 500 OFFCURVE",
"318 511 OFFCURVE",
"283 511 CURVE SMOOTH",
"149 511 OFFCURVE",
"30 404 OFFCURVE",
"32 205 CURVE SMOOTH",
"33 73 OFFCURVE",
"89 -19 OFFCURVE",
"228 -18 CURVE",
"374 65 LINE",
"352 112 LINE",
"334 86 OFFCURVE",
"311 71 OFFCURVE",
"288 71 CURVE SMOOTH",
"217 71 OFFCURVE",
"132 132 OFFCURVE",
"132 248 CURVE SMOOTH",
"132 319 OFFCURVE",
"160 451 OFFCURVE",
"214 451 CURVE SMOOTH",
"270 451 OFFCURVE",
"317 435 OFFCURVE",
"352 412 CURVE"
);
}
);
width = 600;
}
);
unicode = 0071;
},
{
color = 1;
glyphname = r;
layers = (
{
layerId = "943837FD-2EA4-424D-A655-FFF98A08080F";
paths = (
{
closed = 1;
nodes = (
"143 0 LINE",
"143 520 LINE",
"32 500 LINE",
"32 0 LINE"
);
},
{
closed = 1;
nodes = (
"143 389 OFFCURVE",
"165 421 OFFCURVE",
"186 421 CURVE SMOOTH",
"210 421 OFFCURVE",
"231 384 OFFCURVE",
"241 361 CURVE",
"331 435 LINE",
"331 463 OFFCURVE",
"311 511 OFFCURVE",
"251 511 CURVE SMOOTH",
"215 511 OFFCURVE",
"167 490 OFFCURVE",
"143 441 CURVE",
"110 441 LINE",
"143 317 LINE"
);
}
);
width = 363;
},
{
layerId = "4B9CF309-7C6C-4E8F-98F9-807C6FC76924";
paths = (
{
closed = 1;
nodes = (
"143 0 LINE",
"143 520 LINE",
"32 500 LINE",
"32 0 LINE"
);
},
{
closed = 1;
nodes = (
"143 389 OFFCURVE",
"165 421 OFFCURVE",
"186 421 CURVE SMOOTH",
"210 421 OFFCURVE",
"231 384 OFFCURVE",
"241 361 CURVE",
"331 435 LINE",
"331 463 OFFCURVE",
"311 511 OFFCURVE",
"251 511 CURVE SMOOTH",
"215 511 OFFCURVE",
"167 490 OFFCURVE",
"143 441 CURVE",
"110 441 LINE",
"143 317 LINE"
);
}
);
width = 600;
}
);
unicode = 0072;
},
{
color = 0;
glyphname = s;
layers = (
{
layerId = "943837FD-2EA4-424D-A655-FFF98A08080F";
paths = (
{
closed = 1;
nodes = (
"106 -16 OFFCURVE",
"30 39 OFFCURVE",
"32 96 CURVE",
"121 144 LINE",
"139 97 OFFCURVE",
"177 49 OFFCURVE",
"211 49 CURVE SMOOTH",
"237 49 OFFCURVE",
"255 67 OFFCURVE",
"256 110 CURVE SMOOTH",
"258 181 OFFCURVE",
"32 247 OFFCURVE",
"32 350 CURVE SMOOTH",
"32 411 OFFCURVE",
"161 518 OFFCURVE",
"214 518 CURVE SMOOTH",
"277 518 OFFCURVE",
"336 443 OFFCURVE",
"339 407 CURVE",
"258 362 LINE",
"245 411 OFFCURVE",
"187 447 OFFCURVE",
"161 447 CURVE SMOOTH",
"135 447 OFFCURVE",
"110 416 OFFCURVE",
"111 396 CURVE",
"106 325 OFFCURVE",
"337 269 OFFCURVE",
"337 161 CURVE SMOOTH",
"337 57 OFFCURVE",
"236 -16 OFFCURVE",
"170 -16 CURVE SMOOTH"
);
}
);
width = 371;
},
{
layerId = "4B9CF309-7C6C-4E8F-98F9-807C6FC76924";
paths = (
{
closed = 1;
nodes = (
"106 -16 OFFCURVE",
"30 39 OFFCURVE",
"32 96 CURVE",
"121 144 LINE",
"139 97 OFFCURVE",
"177 49 OFFCURVE",
"211 49 CURVE SMOOTH",
"237 49 OFFCURVE",
"255 67 OFFCURVE",
"256 110 CURVE SMOOTH",
"258 181 OFFCURVE",
"32 247 OFFCURVE",
"32 350 CURVE SMOOTH",
"32 411 OFFCURVE",
"161 518 OFFCURVE",
"214 518 CURVE SMOOTH",
"277 518 OFFCURVE",
"336 443 OFFCURVE",
"339 407 CURVE",
"258 362 LINE",
"245 411 OFFCURVE",
"187 447 OFFCURVE",
"161 447 CURVE SMOOTH",
"135 447 OFFCURVE",
"110 416 OFFCURVE",
"111 396 CURVE",
"106 325 OFFCURVE",
"337 269 OFFCURVE",
"337 161 CURVE SMOOTH",
"337 57 OFFCURVE",
"236 -16 OFFCURVE",
"170 -16 CURVE SMOOTH"
);
}
);
width = 600;
}
);
unicode = 0073;
},
{
color = 0;
glyphname = t;
layers = (
{
layerId = "943837FD-2EA4-424D-A655-FFF98A08080F";
paths = (
{
closed = 1;
nodes = (
"347 62 LINE",
"308 21 OFFCURVE",
"242 -20 OFFCURVE",
"175 -19 CURVE SMOOTH",
"111 -18 OFFCURVE",
"97 29 OFFCURVE",
"97 108 CURVE SMOOTH",
"99 582 LINE",
"196 622 LINE",
"196 145 LINE SMOOTH",
"196 86 OFFCURVE",
"220 61 OFFCURVE",
"255 61 CURVE SMOOTH",
"273 61 OFFCURVE",
"304 69 OFFCURVE",
"331 82 CURVE"
);
},
{
closed = 1;
nodes = (
"313 500 LINE",
"284 450 LINE",
"32 450 LINE",
"65 500 LINE"
);
}
);
width = 379;
},
{
layerId = "4B9CF309-7C6C-4E8F-98F9-807C6FC76924";
paths = (
{
closed = 1;
nodes = (
"347 62 LINE",
"308 21 OFFCURVE",
"242 -20 OFFCURVE",
"175 -19 CURVE SMOOTH",
"111 -18 OFFCURVE",
"97 29 OFFCURVE",
"97 108 CURVE SMOOTH",
"99 582 LINE",
"196 622 LINE",
"196 145 LINE SMOOTH",
"196 86 OFFCURVE",
"220 61 OFFCURVE",
"255 61 CURVE SMOOTH",
"273 61 OFFCURVE",
"304 69 OFFCURVE",
"331 82 CURVE"
);
},
{
closed = 1;
nodes = (
"313 500 LINE",
"284 450 LINE",
"32 450 LINE",
"65 500 LINE"
);
}
);
width = 600;
}
);
unicode = 0074;
},
{
color = 0;
glyphname = u;
layers = (
{
layerId = "943837FD-2EA4-424D-A655-FFF98A08080F";
paths = (
{
closed = 1;
nodes = (
"326 0 LINE",
"428 0 LINE",
"428 520 LINE",
"326 500 LINE"
);
},
{
closed = 1;
nodes = (
"347 116 LINE",
"246 63 LINE",
"200 63 OFFCURVE",
"133 86 OFFCURVE",
"133 170 CURVE SMOOTH",
"133 520 LINE",
"32 500 LINE",
"32 210 LINE SMOOTH",
"32 46 OFFCURVE",
"83 -12 OFFCURVE",
"173 -12 CURVE",
"347 72 LINE"
);
}
);
width = 460;
},
{
layerId = "4B9CF309-7C6C-4E8F-98F9-807C6FC76924";
paths = (
{
closed = 1;
nodes = (
"326 0 LINE",
"428 0 LINE",
"428 520 LINE",
"326 500 LINE"
);
},
{
closed = 1;
nodes = (
"347 116 LINE",
"246 63 LINE",
"200 63 OFFCURVE",
"133 86 OFFCURVE",
"133 170 CURVE SMOOTH",
"133 520 LINE",
"32 500 LINE",
"32 210 LINE SMOOTH",
"32 46 OFFCURVE",
"83 -12 OFFCURVE",
"173 -12 CURVE",
"347 72 LINE"
);
}
);
width = 600;
}
);
unicode = 0075;
},
{
color = 0;
glyphname = v;
layers = (
{
layerId = "943837FD-2EA4-424D-A655-FFF98A08080F";
paths = (
{
closed = 1;
nodes = (
"139 528 LINE",
"292 78 LINE",
"270 78 LINE",
"409 500 LINE",
"484 500 LINE",
"299 0 LINE",
"215 -18 LINE",
"32 500 LINE"
);
}
);
width = 516;
},
{
layerId = "4B9CF309-7C6C-4E8F-98F9-807C6FC76924";
paths = (
{
closed = 1;
nodes = (
"139 528 LINE",
"292 78 LINE",
"270 78 LINE",
"409 500 LINE",
"484 500 LINE",
"299 0 LINE",
"215 -18 LINE",
"32 500 LINE"
);
}
);
width = 600;
}
);
unicode = 0076;
},
{
color = 0;
glyphname = w;
layers = (
{
layerId = "943837FD-2EA4-424D-A655-FFF98A08080F";
paths = (
{
closed = 1;
nodes = (
"419 528 LINE",
"528 73 LINE",
"506 73 LINE",
"619 500 LINE",
"697 509 LINE",
"540 0 LINE",
"445 -18 LINE",
"312 500 LINE"
);
},
{
closed = 1;
nodes = (
"139 528 LINE",
"248 73 LINE",
"226 73 LINE",
"339 485 LINE",
"389 451 LINE",
"260 0 LINE",
"165 -18 LINE",
"32 500 LINE"
);
}
);
width = 729;
},
{
layerId = "4B9CF309-7C6C-4E8F-98F9-807C6FC76924";
paths = (
{
closed = 1;
nodes = (
"419 528 LINE",
"528 73 LINE",
"506 73 LINE",
"619 500 LINE",
"697 509 LINE",
"540 0 LINE",
"445 -18 LINE",
"312 500 LINE"
);
},
{
closed = 1;
nodes = (
"139 528 LINE",
"248 73 LINE",
"226 73 LINE",
"339 485 LINE",
"389 451 LINE",
"260 0 LINE",
"165 -18 LINE",
"32 500 LINE"
);
}
);
width = 600;
}
);
unicode = 0077;
},
{
color = 0;
glyphname = x;
layers = (
{
layerId = "943837FD-2EA4-424D-A655-FFF98A08080F";
paths = (
{
closed = 1;
nodes = (
"40 2 LINE",
"409 504 LINE",
"488 503 LINE",
"115 -3 LINE"
);
},
{
closed = 1;
nodes = (
"476 2 LINE",
"356 -18 LINE",
"32 479 LINE",
"137 521 LINE"
);
}
);
width = 520;
},
{
layerId = "4B9CF309-7C6C-4E8F-98F9-807C6FC76924";
paths = (
{
closed = 1;
nodes = (
"40 2 LINE",
"409 504 LINE",
"488 503 LINE",
"115 -3 LINE"
);
},
{
closed = 1;
nodes = (
"476 2 LINE",
"356 -18 LINE",
"32 479 LINE",
"137 521 LINE"
);
}
);
width = 600;
}
);
unicode = 0078;
},
{
color = 0;
glyphname = y;
layers = (
{
layerId = "943837FD-2EA4-424D-A655-FFF98A08080F";
paths = (
{
closed = 1;
nodes = (
"495 501 LINE",
"420 500 LINE",
"276 108 LINE",
"307 111 LINE",
"139 522 LINE",
"32 487 LINE",
"236 -2 LINE",
"140 -220 LINE",
"198 -247 LINE"
);
}
);
width = 527;
},
{
layerId = "4B9CF309-7C6C-4E8F-98F9-807C6FC76924";
paths = (
{
closed = 1;
nodes = (
"495 501 LINE",
"420 500 LINE",
"276 108 LINE",
"307 111 LINE",
"139 522 LINE",
"32 487 LINE",
"236 -2 LINE",
"140 -220 LINE",
"198 -247 LINE"
);
}
);
width = 600;
}
);
unicode = 0079;
},
{
color = 0;
glyphname = z;
layers = (
{
layerId = "943837FD-2EA4-424D-A655-FFF98A08080F";
paths = (
{
closed = 1;
nodes = (
"81 500 LINE",
"385 500 LINE",
"398 476 LINE",
"119 60 LINE",
"120 83 LINE",
"414 83 LINE",
"398 1 LINE",
"38 1 LINE",
"32 38 LINE",
"304 455 LINE",
"302 418 LINE",
"48 420 LINE"
);
}
);
width = 446;
},
{
layerId = "4B9CF309-7C6C-4E8F-98F9-807C6FC76924";
paths = (
{
closed = 1;
nodes = (
"81 500 LINE",
"385 500 LINE",
"398 476 LINE",
"119 60 LINE",
"120 83 LINE",
"414 83 LINE",
"398 1 LINE",
"38 1 LINE",
"32 38 LINE",
"304 455 LINE",
"302 418 LINE",
"48 420 LINE"
);
}
);
width = 600;
}
);
unicode = 007A;
},
{
glyphname = period;
layers = (
{
layerId = "943837FD-2EA4-424D-A655-FFF98A08080F";
paths = (
{
closed = 1;
nodes = (
"172 -5 OFFCURVE",
"208 31 OFFCURVE",
"208 75 CURVE SMOOTH",
"208 119 OFFCURVE",
"172 155 OFFCURVE",
"128 155 CURVE SMOOTH",
"84 155 OFFCURVE",
"48 119 OFFCURVE",
"48 75 CURVE SMOOTH",
"48 31 OFFCURVE",
"84 -5 OFFCURVE",
"128 -5 CURVE SMOOTH"
);
}
);
width = 256;
},
{
layerId = "4B9CF309-7C6C-4E8F-98F9-807C6FC76924";
paths = (
{
closed = 1;
nodes = (
"172 -5 OFFCURVE",
"208 31 OFFCURVE",
"208 75 CURVE SMOOTH",
"208 119 OFFCURVE",
"172 155 OFFCURVE",
"128 155 CURVE SMOOTH",
"84 155 OFFCURVE",
"48 119 OFFCURVE",
"48 75 CURVE SMOOTH",
"48 31 OFFCURVE",
"84 -5 OFFCURVE",
"128 -5 CURVE SMOOTH"
);
}
);
width = 600;
}
);
unicode = 002E;
},
{
glyphname = exclam;
layers = (
{
layerId = "943837FD-2EA4-424D-A655-FFF98A08080F";
paths = (
{
closed = 1;
nodes = (
"30 166 LINE",
"30 700 LINE",
"158 700 LINE",
"158 166 LINE"
);
},
{
closed = 1;
nodes = (
"138 -2 OFFCURVE",
"169 29 OFFCURVE",
"169 67 CURVE SMOOTH",
"169 106 OFFCURVE",
"138 137 OFFCURVE",
"100 137 CURVE SMOOTH",
"61 137 OFFCURVE",
"30 106 OFFCURVE",
"30 67 CURVE SMOOTH",
"30 29 OFFCURVE",
"61 -2 OFFCURVE",
"100 -2 CURVE SMOOTH"
);
}
);
width = 600;
},
{
layerId = "4B9CF309-7C6C-4E8F-98F9-807C6FC76924";
paths = (
{
closed = 1;
nodes = (
"30 166 LINE",
"30 700 LINE",
"158 700 LINE",
"158 166 LINE"
);
},
{
closed = 1;
nodes = (
"138 -2 OFFCURVE",
"169 29 OFFCURVE",
"169 67 CURVE SMOOTH",
"169 106 OFFCURVE",
"138 137 OFFCURVE",
"100 137 CURVE SMOOTH",
"61 137 OFFCURVE",
"30 106 OFFCURVE",
"30 67 CURVE SMOOTH",
"30 29 OFFCURVE",
"61 -2 OFFCURVE",
"100 -2 CURVE SMOOTH"
);
}
);
width = 600;
}
);
unicode = 0021;
},
